<svg xmlns="http://www.w3.org/2000/svg" viewBox="0 0 1280 1280" class="animate">

    <style>
        svg * {
            -webkit-transform-origin: center;
            transform-origin: center;
            transform-box: fill-box;
        }

        .svg-logo {
            -webkit-transform: scale(1, 1);
            transform: scale(1, 1);
        }

    </style>
    <g id="layer" class="svg-logo" transform-origin="center">
        <g id="layer_v" class="animate-translate2top" transform="translate(0 -350)" >
            <path id="v"
                d="M829.52,662.38C823,813.75,750.46,948,640,1037.13,529.54,948,457,813.75,450.48,662.38a509.61,509.61,0,0,0-123.68,71.1C355.65,930.6,474.35,1098.55,640,1194.37c165.65-95.82,284.35-263.77,313.2-460.89A509.61,509.61,0,0,0,829.52,662.38Z">
            </path>
        </g>
        <g id="layer_i_a" transform="translate(0 150)">
            <g id="layer_i" class="animate-translate2bottom">
                <path id="i" d="M640,420.53a388.17,388.17,0,0,1,0,438.94,388.17,388.17,0,0,1,0-438.94Z" />
            </g>
            <g id="layer_a" class="animate-translate2bottom">
                <path id="a"
                    d="M450.48,662.38Q450,651.25,450,640c0-160.48,74.12-303.65,190-397.13C755.88,336.35,830,479.52,830,640q0,11.25-.48,22.38a509.61,509.61,0,0,1,123.68,71.1A644.65,644.65,0,0,0,960,640c0-236.89-128.71-443.71-320-554.37C448.71,196.29,320,403.11,320,640a644.65,644.65,0,0,0,6.8,93.48A509.61,509.61,0,0,1,450.48,662.38Z">
                </path>
            </g>
        </g>
    </g>
</svg>
